<svg width="144" height="144" viewBox="0 0 144 144" fill="none" xmlns="http://www.w3.org/2000/svg">
<g clip-path="url(#clip0_1075_36961)">
<rect width="144" height="144" fill="white"/>
<rect width="144" height="144" fill="#222222"/>
<circle cx="72" cy="72" r="60" fill="#E8A902"/>
<path d="M50 94.0009C50 94.0009 51.4892 108.886 65.4946 108.886C79.5 108.886 101.137 87.9124 101.137 87.9124" stroke="#222222" stroke-width="9" stroke-linecap="round"/>
<path fill-rule="evenodd" clip-rule="evenodd" d="M71.0648 31.3544C68.6788 32.5772 66.3424 34.1351 64.0959 36.0761C62.2154 37.701 62.0081 40.5426 63.6329 42.4232C65.2578 44.3038 68.0994 44.5111 69.98 42.8862C73.4683 39.8723 77.24 38.0901 81.0838 37.2425C84.3575 40.1967 86.7928 43.9408 87.8732 48.482C88.4484 50.8998 90.8747 52.3935 93.2925 51.8184C95.7103 51.2432 97.204 48.8169 96.6288 46.3991C95.8168 42.9857 94.4863 39.9371 92.7779 37.2366C100.142 38.6859 106.647 42.5171 110.296 46.1419C112.059 47.8935 114.909 47.8841 116.66 46.1209C118.412 44.3577 118.402 41.5085 116.639 39.757C111.614 34.7652 103.227 29.9674 93.8338 28.2775C90.5416 27.6852 87.0889 27.471 83.595 27.7763C81.3097 26.1822 78.8756 24.8592 76.3998 23.7947C67.4732 19.9565 57.2273 19.1229 49.8364 21.4554C47.4663 22.2034 46.1514 24.731 46.8993 27.1011C47.6473 29.4711 50.1749 30.7861 52.545 30.0382C57.0709 28.6098 64.2032 28.8365 71.0648 31.3544Z" fill="#222222"/>
</g>
<defs>
<clipPath id="clip0_1075_36961">
<rect width="144" height="144" fill="white"/>
</clipPath>
</defs>
</svg>
